<svg version="1.1" id="图层_1" xmlns="http://www.w3.org/2000/svg" xmlns:xlink="http://www.w3.org/1999/xlink" x="0px" y="0px"
	 viewBox="0 0 160.2 143.7" style="enable-background:new 0 0 160.2 143.7;" xml:space="preserve">
<path style="fill-rule:evenodd;clip-rule:evenodd;fill:#FFFFFF;" class="st0" d="M36.9,100.1l0.8-0.5l23.5,26.1l-0.5,0.7c-7.3,6.5-18.5,6-25-1.3C29,117.9,29.6,106.7,36.9,100.1z"/>
<path class="st1" style="fill:none;stroke:#040000;stroke-width:6;stroke-miterlimit:8;" d="M36.9,100.1l0.8-0.5l23.5,26.1l-0.5,0.7c-7.3,6.5-18.5,6-25-1.3C29,117.9,29.6,106.7,36.9,100.1z"/>
<path class="st2" style="fill-rule:evenodd;clip-rule:evenodd;fill:#F5BA1A;" d="M54.6,3c28.2-0.4,51.4,22.2,51.8,50.4S84.2,104.8,56,105.2c-0.5,0-1,0-1.4,0l-1.4-0.2v20l-27.7-23.2
	c-9.6-8-16.6-18.7-20-30.7l-0.9-5.2l-0.5-1.5l-0.3-2.5l-0.5-2.6V58h0.1L3,54C3.2,25.7,26.2,2.9,54.6,3L54.6,3z"/>
<path class="st1" style="fill:none;stroke:#040000;stroke-width:6;stroke-miterlimit:8;" d="M54.6,3c28.2-0.4,51.4,22.2,51.8,50.4S84.2,104.8,56,105.2c-0.5,0-1,0-1.4,0l-1.4-0.2v20l-27.7-23.2
	c-9.6-8-16.6-18.7-20-30.7l-0.9-5.2l-0.5-1.5l-0.3-2.5l-0.5-2.6V58h0.1L3,54C3.2,25.7,26.2,2.9,54.6,3L54.6,3z"/>
<path class="st2" style="fill-rule:evenodd;clip-rule:evenodd;fill:#F5BA1A;" d="M34,16.4l20.6,10.2l18.3-10.1l4.6,3.8c13,13.2,13.2,34.2,0.5,46.8L54.8,89.8l-23.7-24
	c-13-13.2-13.2-34.2-0.5-46.8L34,16.4z"/>
<path class="st1" style="fill:none;stroke:#040000;stroke-width:6;stroke-miterlimit:8;" d="M34,16.4l20.6,10.2l18.3-10.1l4.6,3.8l0,0c13,13.2,13.2,34.2,0.5,46.8L54.8,89.8l-23.7-24
	c-13-13.2-13.2-34.2-0.5-46.8L34,16.4z"/>
<path class="st3" style="fill-rule:evenodd;clip-rule:evenodd;fill:#F9E198;" d="M66.5,23.1l2.9,2.4l0,0c8.2,8.3,8.1,21.7-0.2,29.9L54.1,70.3L39.2,55.2c-8.2-8.3-8.1-21.7,0.2-29.9l0,0l0,0
	l2.2-1.7l13.1,6.3L66.5,23.1z"/>
<path class="st4" style="fill-rule:evenodd;clip-rule:evenodd;fill:#040000;" d="M55.6,129l-0.5-0.2V94.2l0.5-0.2c5.8,0,10.5,7.8,10.5,17.5S61.4,129,55.6,129z"/>
<path class="st1" style="fill:none;stroke:#040000;stroke-width:6;stroke-miterlimit:8;" d="M55.6,129l-0.5-0.2V94.2l0.5-0.2c5.8,0,10.5,7.8,10.5,17.5S61.4,129,55.6,129z"/>
<polygon class="st5" style="fill:#040000;" points="58.3,126.2 59.3,112.1 38.3,93.9 37.3,107.9 "/>
<polygon class="st5" style="fill:#040000;" points="57.7,114 60.2,100.2 52,91.1 49.4,104.9 "/>
<path class="st0" style="fill-rule:evenodd;clip-rule:evenodd;fill:#FFFFFF;" d="M67.1,101.1l8-6.4c9.2-8.7,17.4-18.4,24.4-29l3.1-5.6l-0.5,6.5c-1.5,5.8-5.2,12.6-10.5,18.9s-11.5,11.1-17,13.6
	L67.1,101.1z"/>
<path class="st6" style="fill:#FFFFFF;" d="M77.2,97.7c-4.9-3.8-9.3-3.4-9.9,0.9c-0.1,0.6-0.1,1.3,0,1.9L77.2,97.7z"/>
<line class="st7" style="fill:none;stroke:#040000;stroke-miterlimit:8;" x1="73.1" y1="55.9" x2="57.6" y2="52.5"/>
<line class="st7" style="fill:none;stroke:#040000;stroke-miterlimit:8;" x1="71.5" y1="58.6" x2="57.6" y2="53.5"/>
<line class="st7" style="fill:none;stroke:#040000;stroke-miterlimit:8;" x1="69.7" y1="62.8" x2="57.6" y2="55.5"/>
<line class="st7" style="fill:none;stroke:#040000;stroke-miterlimit:8;" x1="54.6" y1="60.9" x2="54.6" y2="48.5"/>
<path class="st7" style="fill:none;stroke:#040000;stroke-miterlimit:8;" d="M54.1,60.6c-0.7,1.7-2.9,2-4.8,0.8c-0.4-0.3-0.7-0.5-1-0.9"/>
<path class="st7" style="fill:none;stroke:#040000;stroke-miterlimit:8;" d="M53.5,60.6c0.7,1.7,2.9,2,4.9,0.8c0.4-0.2,0.7-0.5,1-0.9"/>
<line class="st7" style="fill:none;stroke:#040000;stroke-miterlimit:8;" x1="35.6" y1="55.9" x2="51.1" y2="52.5"/>
<line class="st7" style="fill:none;stroke:#040000;stroke-miterlimit:8;" x1="36.6" y1="59.6" x2="50.5" y2="54.5"/>
<line class="st7" style="fill:none;stroke:#040000;stroke-miterlimit:8;" x1="38.6" y1="62.8" x2="50.7" y2="55.5"/>
<path class="st6" style="fill:#FFFFFF;" d="M65.6,42.7c-1.6,1.7-4.3,1.7-6,0.1l-3-3l3-3c1.6-1.7,4.3-1.7,6-0.1C67.3,38.4,67.3,41.1,65.6,42.7L65.6,42.7
	L65.6,42.7z"/>
<path class="st6" style="fill:#FFFFFF;" d="M60.1,36.5c1.8-1.5,4.5-1.3,6,0.5l0,0l2.7,3.3L65.5,43c-1.9,1.4-4.5,1.1-6-0.8C58.1,40.5,58.4,37.9,60.1,36.5z"
	/>
<ellipse class="st5" style="fill:#040000;" cx="63.1" cy="40" rx="2" ry="4"/>
<path class="st6" style="fill:#FFFFFF;" d="M48.1,42.2c-1.6,1.7-4.3,1.7-6,0.1l-3-3l3-3c1.6-1.7,4.3-1.7,6-0.1C49.8,37.9,49.9,40.5,48.1,42.2L48.1,42.2
	L48.1,42.2z"/>
<path class="st6" style="fill:#FFFFFF;" d="M42.6,36c1.8-1.5,4.5-1.3,6,0.6l0,0l0,0l2.7,3.3L48,42.6c-1.7,1.6-4.4,1.6-6-0.1c-1.6-1.7-1.6-4.4,0.1-6
	C42.3,36.3,42.5,36.1,42.6,36L42.6,36z"/>
<ellipse class="st5" style="fill:#040000;" cx="45.1" cy="39.5" rx="2" ry="4.5"/>
<path d="M134.9,133.7H88.7c-2.1,0-3.9-1.7-3.9-3.9v-25.4c0-2.1,1.7-3.9,3.9-3.9h46.2c2.1,0,3.9,1.7,3.9,3.9v25.4
	C138.8,132,137,133.7,134.9,133.7L134.9,133.7z M97.8,126v-10.1l5.2,6.5l5.2-6.5V126h5.2v-17.6h-5.2l-5.2,6.5l-5.2-6.5h-5.2V126
	H97.8L97.8,126z M132.5,117.2h-5.2v-8.8h-5.2v8.8H117l7.8,9.1L132.5,117.2z"/>
</svg>
