<svg width="22.745117" height="10.000000" viewBox="0 0 22.7451 10" fill="none" xmlns="http://www.w3.org/2000/svg" xmlns:xlink="http://www.w3.org/1999/xlink">
	<desc>
			Created with Pixso.
	</desc>
	<defs/>
	<path id="交集" d="M22.7451 4.16667C20.2036 7.69949 16.0566 10 11.3726 10C6.68848 10 2.5415 7.69949 0 4.16667C2.5415 1.64322 6.68848 0 11.3726 0C16.0566 0 20.2036 1.64322 22.7451 4.16667Z" clip-rule="evenodd" fill="#0A59F7" fill-opacity="1.000000" fill-rule="evenodd"/>
	<path id="楼主" d="M17.04 6.71L14.66 6.71L14.66 5.25L16.59 5.25L16.59 4.72L14.66 4.72L14.66 3.53L16.85 3.53L16.85 2.98L14.39 2.98L14.87 2.76L14.73 2.51Q14.52 2.13 14.33 1.82L13.8 2.06Q14.13 2.62 14.31 2.98L11.88 2.98L11.88 3.53L14.08 3.53L14.08 4.72L12.14 4.72L12.14 5.25L14.08 5.25L14.08 6.71L11.69 6.71L11.69 7.26L17.04 7.26L17.04 6.71ZM8.67 3.64Q8.22 4.09 7.53 4.47L7.81 4.93Q8.2 4.68 8.5 4.42Q8.79 4.17 9.05 3.86L9.05 4.69L9.55 4.69L9.55 3.84Q9.77 4.11 10.02 4.33Q10.08 4.38 10.13 4.42Q10.46 4.68 10.87 4.91L11.13 4.48Q10.42 4.13 9.95 3.64L10.97 3.64L10.97 3.17L9.55 3.17L9.55 1.95L9.05 1.95L9.05 3.17L7.74 3.17L7.74 3.64L8.67 3.64ZM6.92 4.72L7.28 5.06L7.57 4.69Q7.47 4.6 7.11 4.27L6.92 4.1L6.92 3.6L7.52 3.6L7.52 3.07L6.92 3.07L6.92 1.98L6.44 1.98L6.44 3.07L5.75 3.07L5.75 3.6L6.42 3.6Q6.26 4.13 6.02 4.68Q5.78 5.24 5.55 5.6L5.83 6.08Q6.15 5.6 6.44 4.82L6.44 7.48L6.92 7.48L6.92 4.72ZM10.19 3.17Q10.53 2.79 10.88 2.35L10.5 2.07Q10.38 2.24 10.18 2.47Q9.99 2.7 9.83 2.86L10.19 3.17ZM7.78 2.39Q8.1 2.77 8.39 3.16L8.75 2.87Q8.46 2.47 8.13 2.1L7.78 2.39ZM9.92 6.47Q10.25 6.15 10.47 5.63L11.12 5.63L11.12 5.14L9.02 5.14Q9.11 4.95 9.16 4.81L8.65 4.68Q8.54 4.93 8.43 5.14L7.43 5.14L7.43 5.63L8.17 5.63Q8.01 5.89 7.82 6.17Q8.53 6.44 8.85 6.57Q8.36 6.75 7.37 6.93L7.53 7.43Q8.2 7.3 8.67 7.14Q9.14 7 9.46 6.81Q10.25 7.13 10.88 7.42L11.13 6.97Q10.54 6.72 9.92 6.47ZM9.4 6.27Q8.85 6.06 8.55 5.96Q8.61 5.88 8.76 5.63L9.87 5.63Q9.78 5.84 9.67 5.99Q9.65 6.02 9.63 6.05Q9.53 6.17 9.4 6.27Z" fill="#FFFFFF" fill-opacity="1.000000" fill-rule="evenodd"/>
</svg>
